<svg xmlns="http://www.w3.org/2000/svg" width="32" height="26" viewBox="0 0 32 26">
    <path fill="#8250C8" fill-rule="evenodd" d="M31.8 12.062a2.133 2.133 0 0 0-2.132-2.133V2.818A2.133 2.133 0 0 0 27.534.684H4.78a2.133 2.133 0 0 0-2.134 2.134v7.11a2.133 2.133 0 0 0-2.133 2.134v6.4c0 .144.014.286.043.427a1.06 1.06 0 0 0-.043.284v5.69a1.067 1.067 0 1 0 2.133 0V23.44h27.023v1.422a1.067 1.067 0 1 0 2.133 0v-5.689a1.06 1.06 0 0 0-.043-.284c.029-.14.043-.283.043-.427v-6.4zM4.78 2.818h22.755v7.11h-1.422V7.085a2.133 2.133 0 0 0-2.133-2.133h-5.69a2.133 2.133 0 0 0-2.133 2.133V9.93h-.71V7.084a2.133 2.133 0 0 0-2.134-2.133H7.623A2.133 2.133 0 0 0 5.49 7.084V9.93h-.711V2.818zm19.2 7.11h-5.69V7.085h5.69V9.93zm-10.667 0H7.623V7.085h5.689V9.93zM2.645 12.063h27.023v6.4H2.645v-6.4zm0 9.245v-.711h27.023v.71H2.645z"/>
</svg>
