<svg xmlns="http://www.w3.org/2000/svg" width="34" height="28" viewBox="0 0 34 28">
    <g fill="#8250C8" fill-rule="nonzero">
        <path d="M21.952 10.98a.547.547 0 0 1-.14-1.074l.021-.006a.547.547 0 0 1 .273 1.057l-.013.004a.53.53 0 0 1-.141.02zM26.332 17.569c-.288 0-.573-.082-.83-.242a1.772 1.772 0 0 1-.775-1.09c-.087-.348.105-.707.429-.8.323-.094.656.113.743.462a.48.48 0 0 0 .21.295.419.419 0 0 0 .342.049.453.453 0 0 0 .274-.227.515.515 0 0 0 .046-.369c-.087-.349.105-.707.429-.8.323-.095.656.113.743.462.115.463.055.946-.167 1.361a1.677 1.677 0 0 1-1.01.837c-.144.041-.29.062-.434.062zM20.842 18.667c-.289 0-.573-.082-.83-.242a1.772 1.772 0 0 1-.775-1.09c-.087-.348.105-.707.429-.8.323-.094.656.113.743.462a.48.48 0 0 0 .21.295.419.419 0 0 0 .342.049.453.453 0 0 0 .274-.227.515.515 0 0 0 .045-.369c-.086-.349.106-.707.43-.8.323-.095.656.113.742.462.116.463.056.946-.166 1.361a1.677 1.677 0 0 1-1.01.837c-.144.041-.29.062-.434.062zM24.665 23.059c-.482 0-.957-.121-1.386-.36a2.668 2.668 0 0 1-1.295-1.62.647.647 0 0 1 .478-.795.68.68 0 0 1 .829.46c.099.352.335.648.665.831.33.183.715.232 1.083.137.76-.195 1.214-.949 1.01-1.679a.647.647 0 0 1 .478-.795.68.68 0 0 1 .829.46c.397 1.421-.485 2.888-1.966 3.268-.24.062-.483.093-.725.093z"/>
        <path d="M33.173 16.248a9.286 9.286 0 0 0-8.415-6.903.655.655 0 0 0-.692.617.656.656 0 0 0 .614.696 7.977 7.977 0 0 1 7.229 5.93c1.139 4.27-1.392 8.675-5.641 9.82a7.871 7.871 0 0 1-2.05.27 8.007 8.007 0 0 1-6.718-3.662 9.311 9.311 0 0 0 1.073-4.35 9.31 9.31 0 0 0-1.073-4.35 8.032 8.032 0 0 1 2.433-2.428.66.66 0 0 0 .203-.907.652.652 0 0 0-.903-.204 9.342 9.342 0 0 0-2.491 2.33c-1.694-2.288-4.405-3.774-7.456-3.774C4.166 9.333 0 13.52 0 18.666c0 5.145 4.166 9.332 9.286 9.332 3.052 0 5.763-1.487 7.457-3.777a9.377 9.377 0 0 0 3.914 3.068 9.173 9.173 0 0 0 5.95.389c4.945-1.332 7.891-6.46 6.566-11.43zM9.286 25.665c-3.86 0-7-3.14-7-7s3.14-7 7-7 7 3.14 7 7-3.14 7-7 7z"/>
        <path d="M7.535 18.118c-.387 0-.7-.263-.7-.587 0-.24-.234-.436-.521-.436-.288 0-.521.195-.521.436 0 .324-.314.587-.7.587-.387 0-.7-.263-.7-.587 0-.887.861-1.61 1.92-1.61 1.06 0 1.922.723 1.922 1.61 0 .324-.313.587-.7.587zM13.574 18.118c-.387 0-.7-.263-.7-.587 0-.24-.234-.436-.52-.436-.288 0-.522.195-.522.436 0 .324-.314.587-.7.587-.387 0-.7-.263-.7-.587 0-.887.862-1.61 1.921-1.61 1.06 0 1.922.723 1.922 1.61 0 .324-.314.587-.7.587zM9.333 23.059c-1.513 0-2.745-1.189-2.745-2.65 0-.355.3-.644.668-.644.369 0 .668.289.668.644 0 .75.632 1.36 1.41 1.36.776 0 1.409-.61 1.409-1.36 0-.355.299-.644.668-.644.368 0 .667.289.667.644 0 1.461-1.231 2.65-2.745 2.65zM16.47 4.392c-.303 0-.548-.29-.548-.648V.648c0-.358.245-.648.549-.648.303 0 .549.29.549.648v3.096c0 .358-.246.648-.55.648zM16.47 7.137a.552.552 0 0 1-.388-.937.553.553 0 0 1 .938.388.551.551 0 0 1-.55.55zM13.106 6.04a.618.618 0 0 1-.439-.182l-2.054-2.055a.62.62 0 0 1 .876-.876l2.055 2.054a.62.62 0 0 1-.438 1.058zM20.395 6.04a.629.629 0 0 1-.446-1.077l2.033-2.033a.631.631 0 0 1 .892.891l-2.032 2.034a.629.629 0 0 1-.447.184z"/>
    </g>
</svg>
