<svg xmlns="http://www.w3.org/2000/svg" width="22" height="24" viewBox="0 0 22 24">
    <path fill="#8250C8" fill-rule="nonzero" d="M20.097 0a1.068 1.068 0 1 1 0 2.136h-.32c-.368 4.157-2.801 7.349-4.694 9.614 1.893 2.267 4.327 5.458 4.693 9.614h.32a1.068 1.068 0 1 1 .001 2.137H1.403a1.068 1.068 0 0 1 0-2.137h.32c.367-4.157 2.801-7.348 4.693-9.614-1.893-2.265-4.325-5.457-4.693-9.614h-.32a1.068 1.068 0 0 1 0-2.136zm-2.461 2.139H3.864c.402 3.756 2.844 6.647 4.668 8.809l.097.115c.336.398.336.98 0 1.377l-.098.116c-1.824 2.161-4.266 5.053-4.667 8.809h13.772c-.401-3.756-2.843-6.648-4.667-8.809l-.098-.115a1.067 1.067 0 0 1 0-1.378l.097-.115c1.824-2.162 4.267-5.054 4.668-8.81zM10.75 12.822c.294 0 .534.238.534.533 0 .771.461 1.534 1.297 2.152 1.787 1.32 3.125 2.753 3.976 4.26a.534.534 0 0 1-.372.788l-.093.008H5.41c-.19 0-.367-.1-.462-.265a.53.53 0 0 1-.004-.531c.851-1.507 2.189-2.94 3.975-4.26.836-.618 1.296-1.381 1.297-2.152 0-.294.24-.534.534-.534zM8.1 5.367h5.3a.534.534 0 0 1 .503.712c-.425 1.21-1.097 2.362-1.994 3.425a2.66 2.66 0 0 0-.625 1.71.534.534 0 0 1-1.068 0 2.66 2.66 0 0 0-.627-1.71c-.896-1.063-1.567-2.215-1.994-3.425a.534.534 0 0 1 .402-.702l.103-.01h5.3z"/>
</svg>
