<svg xmlns="http://www.w3.org/2000/svg" xmlns:xlink="http://www.w3.org/1999/xlink" width="732" height="800" viewBox="0 0 732 800">
    <defs>
        <path id="a" d="M0 0h720v800H0z"/>
        <filter id="b" width="105.6%" height="105%" x="-2.8%" y="-2%" filterUnits="objectBoundingBox">
            <feOffset dy="4" in="SourceAlpha" result="shadowOffsetOuter1"/>
            <feGaussianBlur in="shadowOffsetOuter1" result="shadowBlurOuter1" stdDeviation="6"/>
            <feColorMatrix in="shadowBlurOuter1" values="0 0 0 0 0 0 0 0 0 0 0 0 0 0 0 0 0 0 0.0478091033 0"/>
        </filter>
        <linearGradient id="c" x1="100%" x2="0%" y1="191.939%" y2="-21.738%">
            <stop offset="0%" stop-color="#B276FF"/>
            <stop offset="100%" stop-color="#FE8DC3"/>
        </linearGradient>
    </defs>
    <g fill="none" fill-rule="evenodd">
        <mask id="d" fill="#fff">
            <use xlink:href="#a"/>
        </mask>
        <use fill="#000" filter="url(#b)" xlink:href="#a"/>
        <use fill="#8250C8" xlink:href="#a"/>
        <path fill="url(#c)" d="M-14.562-101c66.61 0 120.141 40.915 145.205 99.455 25.064-58.54 82.322-99.443 148.919-99.443 89.711 0 154.322 75.626 162.444 165.755 0 0 4.385 22.373-5.266 62.652-13.14 54.856-44.03 103.592-85.675 140.787L130.643 462-86.065 268.193c-41.645-37.182-72.535-85.93-85.675-140.786-9.65-40.28-5.266-62.652-5.266-62.652C-168.884-25.375-104.273-101-14.562-101zm148.27 183c-27.337-.106-49.592 20.347-49.708 45.684-.08 17.513 10.606 33.54 27.542 41.309l-7.644 49.547c-.765 5.017 3.003 9.66 8.417 10.37.458.06.921.09 1.384.09h39.6c5.468.051 9.945-4.015 10-9.082a8.473 8.473 0 0 0-.1-1.396l-7.643-49.548c16.728-7.758 27.335-23.568 27.444-40.903.115-25.337-21.953-45.964-49.291-46.071z" mask="url(#d)" opacity=".1"/>
        <path fill="url(#c)" d="M384.438 151c66.61 0 120.141 40.915 145.205 99.455 25.064-58.54 82.322-99.443 148.919-99.443 89.711 0 154.322 75.626 162.444 165.755 0 0 4.385 22.373-5.266 62.652-13.14 54.856-44.03 103.592-85.675 140.787L529.643 714 312.935 520.193c-41.645-37.182-72.535-85.93-85.675-140.786-9.65-40.28-5.266-62.652-5.266-62.652C230.116 226.625 294.727 151 384.438 151zm148.27 183c-27.337-.106-49.592 20.347-49.708 45.684-.08 17.513 10.606 33.54 27.542 41.309l-7.644 49.547c-.765 5.017 3.003 9.66 8.417 10.37.458.06.921.09 1.384.09h39.6c5.468.051 9.945-4.015 10-9.082a8.473 8.473 0 0 0-.1-1.396l-7.643-49.548c16.728-7.758 27.335-23.568 27.444-40.903.115-25.337-21.953-45.964-49.291-46.071z" mask="url(#d)" opacity=".1"/>
    </g>
</svg>
