<svg xmlns="http://www.w3.org/2000/svg" width="254" height="64" viewBox="0 0 254 64">
    <defs>
        <linearGradient id="a" x1="100%" x2="0%" y1="191.708%" y2="-21.621%">
            <stop offset="0%" stop-color="#B276FF"/>
            <stop offset="100%" stop-color="#FE8DC3"/>
        </linearGradient>
    </defs>
    <g fill="none" fill-rule="evenodd">
        <path fill="#FFF" d="M25 0c-8.28.01-14.99 6.516-15 14.545v8.951c0 .618.517 1.12 1.154 1.12h4.615c.638 0 1.154-.502 1.154-1.12v-8.95c0-4.326 3.616-7.833 8.077-7.833 4.46 0 8.077 3.507 8.077 7.832v8.951c0 .618.517 1.12 1.154 1.12h4.615c.637 0 1.154-.502 1.154-1.12v-8.95C39.99 6.515 33.28.01 25 0z"/>
        <path fill="url(#a)" d="M36.84 18.709c7.223 0 12.425 6.084 13.079 13.334 0 0 .353 1.8-.424 5.04-1.058 4.414-3.545 8.334-6.898 11.327L24.85 64 7.402 48.409c-3.353-2.992-5.84-6.913-6.898-11.326-.777-3.24-.424-5.04-.424-5.04.654-7.251 5.856-13.335 13.079-13.335 5.363 0 9.673 3.291 11.691 8 2.018-4.709 6.628-8 11.99-8zM25.017 33.477c-2.21-.009-4.008 1.635-4.017 3.672-.006 1.407.857 2.696 2.226 3.32l-.618 3.983c-.062.403.243.776.68.833a.864.864 0 0 0 .112.007h3.2c.442.004.804-.322.808-.73a.677.677 0 0 0-.008-.112l-.618-3.982c1.352-.624 2.21-1.895 2.218-3.288.01-2.037-1.774-3.694-3.983-3.703z"/>
        <text fill="#FFF" font-family="GillSans-SemiBold, Gill Sans" font-size="44" font-weight="500">
            <tspan x="74" y="43">Love</tspan> <tspan x="167.264" y="43" font-family="GillSans, Gill Sans" font-weight="normal">Lock</tspan>
        </text>
    </g>
</svg>
