<svg width="63" height="69" viewBox="0 0 63 69" fill="none" xmlns="http://www.w3.org/2000/svg">
<mask id="mask0" mask-type="alpha" maskUnits="userSpaceOnUse" x="29" y="9" width="28" height="34">
<path fill-rule="evenodd" clip-rule="evenodd" d="M41.7754 9.15918L56.0084 15.7961L43.4817 42.6598L29.2487 36.0228L41.7754 9.15918Z" fill="white"/>
</mask>
<g mask="url(#mask0)">
<path fill-rule="evenodd" clip-rule="evenodd" d="M52.9853 14.3855C50.2123 13.236 46.9808 13.5373 44.252 14.7532C41.5233 15.9688 39.2519 18.0265 37.3536 20.321C33.6802 24.7601 31.7966 31.1173 30.9565 36.8184C37.3754 37.3796 43.4475 33.0889 46.3892 30.7192C51.0382 26.9734 57.1356 17.3814 52.9853 14.3855Z" fill="#CDBBDB"/>
</g>
<path fill-rule="evenodd" clip-rule="evenodd" d="M21.062 40.1144C24.0794 38.4687 25.7075 35.0076 25.4618 31.6084C25.2159 28.2087 23.2564 24.9433 20.5223 22.6131C19.2582 21.5357 17.6519 20.5922 16.0319 20.7986C14.5174 20.9917 13.3528 22.1956 12.9086 23.5762C12.4643 24.9569 12.6339 26.4836 12.9954 27.9297C14.2341 32.889 16.3768 37.5238 21.062 40.1144Z" fill="#CDBBDB"/>
<path fill-rule="evenodd" clip-rule="evenodd" d="M12.9095 56.1737C13.3572 55.5311 13.9889 55.1061 14.739 53.9191C16.2215 51.5481 18.2483 48.169 19.621 44.0524C20.9922 39.9293 21.1324 35.9337 20.5829 33.2651C20.3208 31.9249 19.953 30.8962 19.6318 30.2315C19.314 29.5641 19.0859 29.2315 19.0561 29.2521C18.9441 29.314 19.7654 30.7359 20.1677 33.3832C20.5958 36.007 20.3948 39.8683 19.0603 43.886C17.7214 47.9049 15.7802 51.2769 14.3909 53.6958" fill="#253138"/>
<path fill-rule="evenodd" clip-rule="evenodd" d="M12.3978 55.9348C13.4038 54.9422 14.7221 53.6418 16.3126 52.0727C19.6094 48.8037 24.1746 44.299 29.2852 39.3899C34.3956 34.4842 39.083 30.1037 42.4847 26.9401C44.1176 25.414 45.4712 24.149 46.5043 23.1835C47.4479 22.2901 47.9552 21.7801 47.9244 21.7461C47.8931 21.7122 47.3267 22.1581 46.3287 22.9933C45.3296 23.8271 43.9055 25.0579 42.1627 26.5972C38.6766 29.6751 33.9324 34.0066 28.8166 38.9175C23.7011 43.8314 19.1841 48.3929 15.9721 51.7475C14.3657 53.4242 13.0807 54.7951 12.2089 55.7577" fill="#253138"/>
<mask id="mask1" mask-type="alpha" maskUnits="userSpaceOnUse" x="22" y="38" width="27" height="22">
<path fill-rule="evenodd" clip-rule="evenodd" d="M28.2461 38.2422L48.7542 47.8053L43.4252 59.2333L22.9171 49.6702L28.2461 38.2422Z" fill="white"/>
</mask>
<g mask="url(#mask1)">
<path fill-rule="evenodd" clip-rule="evenodd" d="M23.6869 48.1659C29.4877 44.1477 37.3632 43.1828 44.0837 45.6667C45.7948 46.2995 47.6658 47.4754 47.7455 49.2693C47.8259 51.0659 46.0533 52.347 44.3816 53.035C37.4268 55.8964 28.6905 54.0373 23.4276 48.5754" fill="#CDBBDB"/>
</g>
<path fill-rule="evenodd" clip-rule="evenodd" d="M39.7074 48.8421C39.7232 48.7989 39.3355 48.627 38.615 48.3526C38.2571 48.2082 37.8123 48.0493 37.2796 47.9206C36.7493 47.7845 36.1509 47.5934 35.4664 47.4948C34.1112 47.218 32.4618 47.0725 30.6298 47.0833C28.7987 47.1335 26.7852 47.3635 24.7268 47.8732C22.6739 48.4096 20.7917 49.1707 19.1546 50.0036C17.5342 50.8712 16.1489 51.7894 15.0836 52.6821C14.5263 53.0965 14.088 53.5515 13.6842 53.925C13.2746 54.2938 12.9571 54.6464 12.7087 54.945C12.2019 55.5323 12.2242 55.839 12.2585 55.8696C12.3536 55.9589 13.1927 54.6935 15.3714 53.0557C16.4528 52.227 17.8337 51.3713 19.4308 50.5536C21.0451 49.7704 22.8851 49.0461 24.8873 48.5225C26.8961 48.0257 28.8552 47.7832 30.6431 47.7002C32.4312 47.6568 34.0477 47.7495 35.3869 47.962C38.0713 48.3622 39.6648 48.9664 39.7074 48.8421Z" fill="#253138"/>
</svg>
