<svg xmlns="http://www.w3.org/2000/svg" width="158" height="223" viewBox="0 0 158 223">
    <g fill="none" fill-rule="nonzero">
        <path fill="#FF70D4" d="M125.364 148.066H28.636c-4.77 0-8.636-3.918-8.636-8.75v-10.5c0-4.833 3.866-8.75 8.636-8.75h96.728c4.77 0 8.636 3.917 8.636 8.75v10.5c0 4.832-3.867 8.75-8.636 8.75z"/>
        <path fill="#8250C8" d="M126 148.066H27l13.362 69h72.276z"/>
        <g fill="#D0EC7E">
            <path d="M26.96 101.14c8.882 2.388 18.015-2.923 20.402-11.863 2.386-8.94-2.88-18.124-11.76-20.513a16.493 16.493 0 0 0-11.122.903v-.002L5.16 77.863l12.55 16.83.003-.01a16.554 16.554 0 0 0 9.248 6.456zM129.763 102.006c-9.807 2.639-19.895-3.226-22.53-13.1-2.636-9.873 3.18-20.015 12.987-22.654a18.212 18.212 0 0 1 12.282.998v-.002l21.337 9.053-13.86 18.586-.004-.01a18.273 18.273 0 0 1-10.212 7.13zM73.721 28.236c-2.628 9.846 3.215 19.972 13.05 22.618 9.834 2.646 19.937-3.192 22.566-13.038a18.415 18.415 0 0 0-.994-12.33h.001l-9.018-21.42L80.812 17.98l.01.003a18.35 18.35 0 0 0-7.1 10.252zM52.593 21.992c6.714 7.647 5.965 19.325-1.673 26.084s-19.273 6.039-25.987-1.608a18.388 18.388 0 0 1-4.57-11.488l-1.409-23.212 22.747 4.203-.009.007a18.259 18.259 0 0 1 10.901 6.014z"/>
        </g>
        <path fill="#141927" d="M157.69 75.719a4.331 4.331 0 0 0-2.487-2.862l-21.39-9.08h-.002a22.671 22.671 0 0 0-15.108-1.193c-11.43 3.077-18.489 14.442-16.52 25.96a80.017 80.017 0 0 0-20.535 17.253v-.26c0-16.69 2.078-33.311 6.173-49.475 1.09.16 2.179.24 3.257.24 10.059 0 19.283-6.736 22.002-16.927a22.96 22.96 0 0 0-1.186-15.172l-.002-.005-9.04-21.484a4.322 4.322 0 0 0-2.85-2.498 4.304 4.304 0 0 0-3.714.715l-18.56 13.956c-.05.038-.1.078-.15.118a22.858 22.858 0 0 0-8.541 12.515c-2.715 10.178 1.907 20.625 10.595 25.684a210.04 210.04 0 0 0-4.155 20.263C71.18 63.759 64.763 55.019 56.608 48.02c6.1-8.472 5.809-20.358-1.343-28.507a22.73 22.73 0 0 0-13.193-7.399 4.277 4.277 0 0 0-.183-.038L19.086 7.862a4.309 4.309 0 0 0-3.643 1.019 4.347 4.347 0 0 0-1.447 3.51l1.412 23.28v.017a22.921 22.921 0 0 0 5.652 14.109c4.484 5.11 10.757 7.718 17.066 7.718 4.206 0 8.426-1.166 12.142-3.519 14.296 11.885 22.746 29.783 22.746 48.507v9.209a88.152 88.152 0 0 0-21.885-21.458c2.53-11.028-4.073-22.204-15.018-25.15a20.938 20.938 0 0 0-13.937 1.095l-.009.003-19.368 8.222A4.33 4.33 0 0 0 .31 77.286a4.351 4.351 0 0 0 .711 3.73l12.583 16.88c.035.048.07.094.108.14a21.01 21.01 0 0 0 11.502 7.915c1.81.487 3.63.72 5.422.72 6.625 0 12.861-3.185 16.805-8.441a79.48 79.48 0 0 1 18.206 18.04H28.673c-7.141 0-12.95 5.834-12.95 13.007v10.406c0 5.46 3.368 10.143 8.127 12.068l12.833 66.8a4.322 4.322 0 0 0 4.239 3.515h72.092a4.322 4.322 0 0 0 4.24-3.515l12.823-66.753c4.821-1.895 8.246-6.61 8.246-12.115v-10.406c0-7.173-5.81-13.008-12.95-13.008H84.457l.108-.152c5.51-7.743 12.63-14.37 20.725-19.333 4.139 6.685 11.49 10.815 19.345 10.815 1.939 0 3.91-.251 5.87-.779a22.755 22.755 0 0 0 12.46-8.578c.04-.05.08-.1.118-.151l13.895-18.642a4.35 4.35 0 0 0 .712-3.73zM27.537 44.062a14.011 14.011 0 0 1-3.505-8.817 4.803 4.803 0 0 0-.013-.209l-1.07-17.642 17.107 3.162c.122.03.245.056.37.076a14.086 14.086 0 0 1 8.363 4.616c4.2 4.785 4.583 11.652 1.399 16.836l-5.059-5.335a4.304 4.304 0 0 0-6.103-.15 4.35 4.35 0 0 0-.149 6.13l4.742 5.002c-5.447 2.302-11.976 1.01-16.082-3.67zm-.088 53.512a12.359 12.359 0 0 1-6.866-4.795c-.071-.1-.146-.198-.225-.29L11.24 80.253l14.193-6.024c.063-.026.126-.052.188-.08a12.145 12.145 0 0 1 8.257-.67c5.576 1.5 9.24 6.634 9.16 12.204l-5.84-2.982a4.308 4.308 0 0 0-5.804 1.9 4.345 4.345 0 0 0 1.892 5.83l6.61 3.375c-3.02 3.404-7.785 5.021-12.446 3.767zm49.928-67.809a14.163 14.163 0 0 1 5.447-7.868c.104-.074.205-.153.3-.235l13.923-10.469 6.854 16.29c.024.062.05.123.077.183a14.039 14.039 0 0 1 .763 9.464c-1.765 6.615-7.951 10.88-14.532 10.47l2.696-8.996c.687-2.293-.607-4.712-2.89-5.402a4.315 4.315 0 0 0-5.378 2.903l-2.497 8.334c-4.195-3.426-6.246-9.114-4.763-14.674zm32.074 183.629H44.485l-8.33-43.36H56.68c2.384 0 4.317-1.94 4.317-4.336 0-2.394-1.933-4.336-4.317-4.336h-22.19l-1.665-8.671h88.289l-11.662 60.703zm20.239-84.117v10.406c0 2.39-1.937 4.336-4.317 4.336h-96.7c-2.38 0-4.317-1.945-4.317-4.336v-10.406c0-2.391 1.937-4.336 4.317-4.336h96.7c2.38 0 4.317 1.944 4.317 4.336zm6.649-36.608a4.266 4.266 0 0 0-.235.304 14.103 14.103 0 0 1-7.834 5.471c-5.814 1.564-11.77-.786-15.108-5.435l5.777-2.446a4.343 4.343 0 0 0 2.301-5.68 4.31 4.31 0 0 0-5.654-2.311l-5.1 2.158c-.021-6.294 4.14-12.071 10.452-13.77a14.085 14.085 0 0 1 3.667-.49c1.963 0 3.91.42 5.754 1.256.06.026.119.052.18.076l16.221 6.885-10.421 13.982z"/>
        <path fill="#000" d="M73.946 170.034c1.136 0 2.25-.464 3.052-1.27a4.379 4.379 0 0 0 1.265-3.066c0-1.14-.462-2.259-1.265-3.065a4.338 4.338 0 0 0-3.052-1.27 4.34 4.34 0 0 0-3.052 1.27 4.379 4.379 0 0 0-1.265 3.065c0 1.14.462 2.26 1.265 3.066a4.34 4.34 0 0 0 3.052 1.27z"/>
    </g>
</svg>
