<svg width="100" height="125.00000000000001" xmlns="http://www.w3.org/2000/svg">

 <g>
  <title>background</title>
  <rect fill="none" id="canvas_background" height="402" width="582" y="-1" x="-1"/>
 </g>
 <g>
  <title>Layer 1</title>
  <path fill="#ffc107" id="svg_1" d="m50,17.5c-24.853,0 -45,20.147 -45,45c0,24.854 20.147,45 45,45c24.854,0 45,-20.146 45,-45c0,-24.853 -20.146,-45 -45,-45zm0,72.777c-3.068,0 -5.556,-2.486 -5.556,-5.555c0,-3.07 2.487,-5.557 5.556,-5.557c3.068,0 5.557,2.486 5.557,5.557c0,3.069 -2.489,5.555 -5.557,5.555zm6.033,-49.249l-1.207,27.725l-0.006,0c-0.113,2.567 -2.225,4.616 -4.82,4.616c-2.595,0 -4.707,-2.049 -4.82,-4.616l-0.006,0l-1.207,-27.725l0.008,0c-0.004,-0.09 -0.014,-0.178 -0.014,-0.268c0,-3.334 2.703,-6.038 6.039,-6.038s6.039,2.704 6.039,6.038c0,0.09 -0.01,0.178 -0.014,0.268l0.008,0z"/>
 </g>
</svg>