<svg xmlns="http://www.w3.org/2000/svg" width="24" height="32" viewBox="0 0 24 32">
    <g fill="#9EA1AA" fill-rule="evenodd">
        <path d="M21.134 3.129H16.22a4.715 4.715 0 0 0-8.654 0h-4.92A2.133 2.133 0 0 0 .511 5.262v22.045c0 1.178.955 2.133 2.133 2.133h18.49a2.133 2.133 0 0 0 2.133-2.133V5.262a2.133 2.133 0 0 0-2.134-2.133zm-9.244-.711a2.453 2.453 0 0 1 1.806.71h-3.584a2.453 2.453 0 0 1 1.778-.71zm9.244 24.889H2.645V5.262h18.49v22.045z"/>
        <circle cx="6.912" cy="30.507" r="1.067"/>
        <circle cx="16.868" cy="30.507" r="1.067"/>
        <path d="M4.779 7.396H6.2v17.777H4.779zM9.045 7.396h1.422v17.778H9.045zM13.312 7.396h1.422v17.778h-1.422zM17.579 7.396h1.422v17.778h-1.422z"/>
    </g>
</svg>
