<?xml version="1.0" standalone="no"?>
<!DOCTYPE svg PUBLIC "-//W3C//DTD SVG 20010904//EN"
 "http://www.w3.org/TR/2001/REC-SVG-20010904/DTD/svg10.dtd">
<svg version="1.0" xmlns="http://www.w3.org/2000/svg"
 width="1024.000000pt" height="1024.000000pt" viewBox="0 0 1024.000000 1024.000000"
 preserveAspectRatio="xMidYMid meet">
<metadata>
Created by potrace 1.11, written by Peter Selinger 2001-2013
</metadata>
<g transform="translate(0.000000,1024.000000) scale(0.100000,-0.100000)"
fill="#000000" stroke="none">
<path d="M4938 10235 c-2 -2 -33 -6 -68 -9 -36 -3 -76 -7 -90 -10 -14 -2 -47
-8 -75 -12 -27 -4 -52 -8 -55 -9 -17 -5 -128 -28 -140 -30 -8 -1 -22 -5 -30
-8 -13 -5 -93 -28 -110 -32 -8 -1 -103 -36 -125 -46 -11 -4 -49 -20 -85 -35
-36 -14 -87 -38 -115 -52 -27 -14 -56 -27 -64 -28 -8 -2 -17 -6 -20 -11 -3 -4
-26 -19 -51 -32 -96 -50 -296 -190 -380 -265 -44 -40 -250 -247 -270 -272 -8
-11 -31 -39 -50 -64 -19 -25 -38 -46 -42 -48 -5 -2 -8 -10 -8 -17 0 -7 -3 -15
-7 -17 -10 -4 -73 -94 -73 -103 0 -3 -11 -21 -24 -38 -51 -67 -207 -403 -220
-472 -1 -5 -4 -14 -8 -20 -7 -12 -66 -247 -72 -290 -2 -16 -7 -48 -11 -70 -14
-92 -16 -115 -20 -229 -3 -65 -7 -122 -10 -125 -2 -4 0 -13 5 -21 4 -7 5 -23
0 -35 -5 -12 -4 -28 0 -35 5 -8 5 -21 0 -30 -5 -9 -5 -22 -1 -28 4 -7 5 -35 1
-62 -4 -27 -3 -55 1 -62 4 -6 4 -19 -1 -28 -5 -9 -5 -22 0 -30 4 -7 4 -24 0
-36 -6 -14 -5 -26 0 -29 5 -3 5 -18 0 -34 -4 -16 -6 -32 -3 -35 3 -2 4 -31 4
-63 -1 -32 -1 -67 -1 -78 1 -11 1 -27 0 -35 0 -8 0 -27 0 -41 0 -21 -7 -29
-30 -37 -16 -6 -30 -9 -30 -7 0 2 -20 -4 -44 -15 -24 -10 -47 -16 -50 -13 -3
4 -6 1 -6 -6 0 -7 -3 -10 -8 -7 -4 2 -23 -3 -42 -12 -19 -8 -38 -16 -42 -16
-3 -1 -10 -4 -14 -8 -4 -5 -15 -8 -25 -8 -9 0 -19 -3 -21 -7 -1 -5 -30 -21
-63 -36 -52 -25 -261 -151 -275 -167 -4 -4 -75 -61 -118 -95 -22 -17 -185
-179 -222 -220 -55 -62 -199 -257 -213 -287 -6 -16 -15 -28 -19 -28 -5 0 -8
-5 -8 -11 0 -6 -8 -23 -18 -37 -41 -59 -149 -286 -150 -316 0 -5 -4 -12 -9
-15 -8 -6 -30 -59 -38 -91 -2 -8 -13 -42 -23 -75 -20 -58 -40 -129 -43 -150
-1 -5 -5 -19 -9 -31 -5 -11 -11 -36 -14 -55 -3 -19 -8 -45 -11 -59 -4 -14 -8
-39 -10 -57 -2 -18 -6 -40 -9 -50 -3 -10 -7 -40 -11 -68 -3 -27 -8 -72 -12
-100 -9 -67 -9 -344 -1 -425 12 -107 19 -153 28 -190 5 -19 12 -55 15 -79 4
-37 18 -92 75 -306 8 -31 37 -119 47 -145 4 -8 7 -18 8 -22 2 -5 4 -10 5 -13
1 -3 3 -8 5 -12 1 -5 7 -21 14 -38 7 -16 14 -38 17 -49 2 -10 7 -23 12 -30 5
-6 15 -27 22 -46 21 -58 160 -334 177 -352 9 -10 13 -18 9 -18 -4 0 8 -21 26
-47 18 -27 33 -50 33 -53 0 -14 223 -328 255 -360 3 -3 30 -34 60 -70 66 -79
104 -120 196 -213 61 -62 102 -101 263 -247 15 -14 56 -50 90 -80 35 -30 80
-71 101 -90 21 -19 66 -60 100 -90 34 -30 75 -66 90 -80 15 -14 60 -54 100
-90 40 -36 87 -78 104 -93 72 -65 96 -86 176 -156 47 -41 92 -82 100 -90 9 -9
49 -45 90 -81 41 -36 80 -70 85 -76 6 -6 48 -44 95 -85 46 -41 90 -78 96 -84
6 -5 44 -39 84 -75 40 -36 85 -76 99 -90 15 -14 62 -56 106 -95 44 -38 98 -86
120 -106 22 -20 52 -47 67 -60 32 -29 139 -124 177 -159 16 -14 60 -53 99 -88
39 -35 82 -73 95 -85 13 -12 54 -49 92 -82 38 -33 76 -67 84 -75 9 -9 57 -52
106 -95 50 -44 92 -82 95 -85 3 -3 43 -39 90 -80 47 -41 87 -77 90 -80 60 -58
66 -61 87 -43 11 10 53 47 93 83 88 78 116 103 151 133 14 12 43 38 65 57 21
19 73 64 114 100 71 61 120 105 178 158 14 12 48 41 75 65 28 23 58 49 66 57
9 9 47 43 86 75 38 33 76 67 85 75 15 14 117 104 170 150 14 12 39 34 55 48
17 15 64 56 105 92 41 35 82 71 91 80 9 8 47 42 85 75 37 33 81 71 96 85 15
14 47 42 71 62 24 20 55 47 69 60 14 13 51 46 83 73 31 28 67 59 79 70 12 11
55 49 96 85 41 36 77 67 80 70 3 3 36 32 74 65 39 33 79 69 91 80 12 11 50 45
85 75 35 30 71 62 80 70 10 8 41 35 70 60 29 25 64 56 79 70 14 14 60 54 101
90 41 36 77 67 80 70 3 3 43 38 90 79 47 41 87 78 88 83 2 4 10 8 18 8 8 0 14
7 14 15 0 8 4 15 9 15 15 0 219 208 306 314 22 27 49 58 59 70 28 32 186 245
186 251 0 6 40 66 50 75 8 7 68 109 132 225 43 77 117 229 121 248 1 7 5 14 8
17 3 3 25 55 48 115 62 160 63 164 62 167 -1 2 8 30 19 63 19 54 61 213 74
275 3 14 7 36 10 50 7 28 22 116 30 170 21 136 28 435 13 535 -4 28 -9 64 -11
80 -2 17 -7 55 -11 85 -4 30 -9 64 -11 75 -1 11 -3 21 -4 23 -3 3 -5 9 -15 62
-5 25 -9 47 -10 50 -1 3 -5 19 -9 35 -4 17 -10 37 -13 45 -3 8 -7 22 -9 30 -8
43 -55 176 -114 325 -4 11 -8 24 -8 29 0 5 -4 12 -9 15 -4 3 -33 56 -63 116
-30 60 -59 114 -63 120 -4 5 -31 46 -59 90 -116 180 -289 373 -448 500 -41 33
-77 62 -80 65 -35 38 -328 200 -431 240 -41 16 -26 10 -131 44 -93 30 -90 26
-88 96 1 14 1 30 1 35 0 6 0 37 0 70 -1 33 -1 69 -1 80 -1 11 -1 26 -1 33 3
84 3 111 -2 119 -3 5 -2 15 3 23 4 7 4 24 0 36 -6 14 -5 26 0 29 5 3 6 15 1
28 -5 12 -5 31 -1 42 4 11 5 24 3 28 -5 8 -7 101 -3 122 2 6 2 13 1 17 0 4 -3
58 -7 120 -5 112 -12 193 -14 193 -1 0 -4 14 -6 30 -12 77 -42 211 -69 310 -1
6 -3 12 -3 15 0 3 -10 30 -22 60 -12 30 -23 62 -25 70 -12 58 -140 310 -227
445 -122 190 -355 444 -518 565 -18 14 -46 35 -61 48 -15 12 -31 22 -37 22 -6
0 -12 4 -14 8 -4 12 -95 72 -107 72 -6 0 -11 3 -11 8 0 4 -10 12 -23 18 -12 6
-65 34 -117 62 -136 73 -371 168 -460 187 -8 2 -42 11 -75 19 -33 9 -75 19
-94 22 -18 3 -43 8 -55 10 -28 6 -119 22 -176 29 -49 7 -456 16 -462 10z m337
-1079 c97 -12 119 -16 193 -37 146 -41 281 -103 397 -183 33 -22 65 -45 71
-51 6 -5 37 -32 69 -60 99 -86 235 -269 292 -395 31 -68 42 -98 49 -125 4 -16
10 -34 14 -40 10 -15 36 -143 46 -225 4 -37 8 -670 5 -840 l-1 -45 -63 -19
c-34 -11 -69 -23 -77 -27 -8 -4 -44 -20 -80 -35 -36 -16 -92 -42 -125 -60 -33
-18 -76 -40 -95 -50 -19 -11 -39 -25 -43 -31 -4 -7 -14 -13 -22 -13 -7 0 -27
-11 -43 -25 -17 -14 -35 -25 -41 -25 -6 0 -11 -5 -11 -10 0 -6 -8 -14 -17 -17
-10 -4 -23 -12 -29 -17 -7 -6 -31 -27 -54 -45 -23 -19 -48 -41 -56 -48 -7 -7
-17 -13 -23 -13 -6 0 -11 -6 -12 -12 0 -7 -20 -29 -44 -48 -24 -19 -49 -45
-56 -57 -7 -13 -17 -23 -23 -24 -23 -1 -247 -306 -298 -405 -64 -123 -88 -174
-88 -183 0 -32 -25 1 -71 97 -29 59 -57 109 -61 110 -4 2 -8 8 -8 13 0 12 -62
113 -72 117 -4 2 -8 8 -8 13 0 9 -96 138 -150 203 -90 107 -279 278 -395 356
-27 19 -52 38 -53 42 -2 4 -7 6 -12 3 -4 -3 -13 2 -20 10 -7 8 -18 15 -25 15
-8 0 -15 4 -17 8 -5 14 -246 128 -320 152 -38 13 -68 28 -69 34 -4 70 1 845 6
877 18 134 58 289 88 344 6 11 12 25 13 32 4 23 116 205 161 261 47 58 163
175 200 202 173 126 355 218 458 231 6 0 18 5 28 11 18 9 93 23 182 34 27 3
51 6 52 8 4 3 215 -3 258 -8z"/>
</g>
</svg>
