<svg xmlns="http://www.w3.org/2000/svg" width="25" height="32" viewBox="0 0 25 32">
    <defs>
        <linearGradient id="a" x1="100%" x2="0%" y1="222.691%" y2="-37.28%">
            <stop offset="0%" stop-color="#B276FF"/>
            <stop offset="100%" stop-color="#FE8DC3"/>
        </linearGradient>
    </defs>
    <g fill="none" fill-rule="evenodd">
        <path fill="#FFF" d="M12.5 0C8.36.005 5.005 3.258 5 7.273v4.475c0 .31.258.56.577.56h2.308c.318 0 .577-.25.577-.56V7.273c0-2.163 1.808-3.916 4.038-3.916 2.23 0 4.038 1.753 4.038 3.916v4.475c0 .31.259.56.577.56h2.308c.319 0 .577-.25.577-.56V7.273C19.995 3.258 16.64.005 12.5 0z"/>
        <path fill="url(#a)" d="M12.425 13.354c1.009-2.354 3.314-4 5.995-4 3.612 0 6.213 3.042 6.54 6.668 0 0 .176.9-.212 2.52-.53 2.206-1.773 4.167-3.45 5.663L12.426 32l-8.724-7.796C2.025 22.71.781 20.748.252 18.541c-.388-1.62-.212-2.52-.212-2.52.327-3.625 2.928-6.667 6.54-6.667 2.681 0 4.836 1.646 5.845 4z"/>
        <path fill="#2C4F61" d="M14.5 18.59c.005-1.018-.887-1.847-1.992-1.852-1.104-.004-2.003.818-2.008 1.836-.003.704.429 1.348 1.113 1.66l-.309 1.992c-.031.201.121.388.34.417a.432.432 0 0 0 .056.003h1.6c.22.002.402-.161.404-.365a.339.339 0 0 0-.004-.056l-.309-1.991c.676-.312 1.105-.947 1.109-1.644z"/>
    </g>
</svg>
